<svg width="27" height="31" viewBox="0 0 27 31" fill="none" xmlns="http://www.w3.org/2000/svg">
<path d="M25.2905 17.6797H24.8864V13.611C24.8864 12.9669 24.5996 12.3966 24.1617 12.0501V11.4961C24.1617 10.6925 23.5769 10.0388 22.8581 10.0388H22.5564L23.7107 8.14518C24.0976 7.51049 23.9505 6.64217 23.3827 6.20957L15.5501 0.242341C15.275 0.0327629 14.9436 -0.0445835 14.6164 0.0248042C14.2894 0.0940741 14.006 0.30153 13.8186 0.609029L7.05802 11.6995H5.17672L5.63061 6.56288C5.63572 6.50499 5.66937 6.45482 5.7163 6.43507C6.30107 6.18858 6.80785 5.72828 7.14324 5.13898C7.16966 5.09259 7.2195 5.06606 7.27107 5.0719L10.2218 5.39779C10.4334 5.42072 10.6216 5.24846 10.6425 5.01206C10.6634 4.77566 10.5089 4.56513 10.2974 4.54179L7.34669 4.2159C7.00418 4.1784 6.67755 4.35485 6.49403 4.6772C6.24744 5.11051 5.87482 5.4489 5.44488 5.63012C5.12125 5.76654 4.89903 6.09149 4.86485 6.47828L4.40353 11.6994H3.91294L4.63077 3.57543C4.65661 3.28302 4.89006 3.0682 5.15194 3.0975L11.1148 3.756C11.3263 3.77882 11.5146 3.60668 11.5355 3.37027C11.5564 3.13387 11.4019 2.92335 11.1905 2.9L5.22756 2.2415C4.54391 2.1661 3.93256 2.72645 3.86501 3.49083L3.28641 10.0388H2.30107C1.5823 10.0388 0.997471 10.6925 0.997471 11.4961V11.874C0.40943 12.1766 0 12.8411 0 13.611V28.2723C0 29.3264 0.767075 30.184 1.71002 30.184H23.1765C24.1193 30.184 24.8864 29.3264 24.8864 28.2723V24.2038H25.2905C25.7674 24.2038 26.1554 23.77 26.1554 23.2369V18.6465C26.1554 18.1134 25.7674 17.6797 25.2905 17.6797ZM22.8581 10.899C23.1527 10.8989 23.3922 11.1668 23.3922 11.4961V11.7153C23.3215 11.7052 23.2496 11.6995 23.1765 11.6995H21.5441L22.032 10.899H22.8581ZM14.4544 1.09339C14.5262 0.975776 14.6345 0.896425 14.7596 0.869897C14.7895 0.863589 14.8195 0.860405 14.8493 0.860405C14.9441 0.860405 15.0367 0.892122 15.1167 0.953079L22.9494 6.92031C23.1666 7.08579 23.2229 7.41793 23.0749 7.6607L20.613 11.6993H20.0221L21.2292 9.71928C21.4249 9.39817 21.4411 8.9895 21.2712 8.6527C21.0453 8.20525 20.9538 7.67839 21.0134 7.16909C21.0577 6.7902 20.9086 6.42033 20.6242 6.20374L16.5638 3.11035C16.2794 2.8937 15.9169 2.87383 15.6177 3.05853C15.2156 3.30672 14.7434 3.40417 14.2883 3.33296C13.9508 3.28002 13.6085 3.45039 13.4157 3.76667L8.57999 11.6994H7.98916L14.4544 1.09339ZM14.6239 8.39714C12.9485 8.39714 11.5731 9.85759 11.4611 11.6994H9.51102L14.0514 4.25109C14.0514 4.25109 14.0514 4.25109 14.0514 4.25109C14.0772 4.2087 14.12 4.18347 14.1639 4.18347C14.1698 4.18347 14.1756 4.18394 14.1815 4.18483C14.8005 4.28163 15.4425 4.14922 15.9895 3.8116C16.0325 3.78495 16.0878 3.78878 16.1304 3.82121L20.1909 6.91465C20.2334 6.94707 20.2568 7.0032 20.2504 7.05767C20.1694 7.75031 20.2939 8.46683 20.601 9.07534C20.6256 9.12421 20.6226 9.18682 20.5934 9.23487L19.0911 11.6993H17.7868C17.6747 9.85759 16.2994 8.39714 14.6239 8.39714ZM17.0153 11.6995H12.2325C12.3427 10.3324 13.3729 9.25739 14.6239 9.25739C15.875 9.25733 16.9051 10.3324 17.0153 11.6995ZM1.76692 11.4961C1.76692 11.1668 2.00649 10.8989 2.30107 10.8989H3.21042L3.1397 11.6994H1.76692V11.4961ZM0.769448 13.611C0.769448 13.0313 1.19138 12.5596 1.71002 12.5596H23.1765C23.6951 12.5596 24.117 13.0313 24.117 13.611V14.8045H0.769448V13.611ZM24.117 28.2723C24.117 28.8521 23.6951 29.3238 23.1765 29.3238H1.71002C1.19138 29.3238 0.769448 28.8521 0.769448 28.2723V27.0789H2.84412C3.05664 27.0789 3.22882 26.8864 3.22882 26.6488C3.22882 26.4113 3.05659 26.2188 2.84412 26.2188H0.769448V15.6646H24.117V17.6797H20.459H20.4589C19.3064 17.6797 18.308 18.4307 17.8342 19.5179C17.8326 19.5215 17.8308 19.5251 17.8292 19.5287C17.8252 19.538 17.8217 19.5476 17.8178 19.5569C17.7614 19.6909 17.7123 19.8296 17.6724 19.9728C17.6723 19.9732 17.6722 19.9735 17.6721 19.9739C17.5869 20.2798 17.541 20.6049 17.541 20.9417C17.541 22.7404 18.85 24.2038 20.4589 24.2038H20.4589H24.1169V26.2188H5.30756C5.09504 26.2188 4.92286 26.4113 4.92286 26.6488C4.92286 26.8864 5.09509 27.0789 5.30756 27.0789H24.117V28.2723ZM25.386 23.2369C25.386 23.2957 25.3431 23.3436 25.2905 23.3436H20.459C19.6446 23.3436 18.9344 22.8343 18.5702 22.0856C18.5536 22.0516 18.5378 22.0171 18.5227 21.9821C18.4925 21.9121 18.4652 21.8403 18.4411 21.7667C18.3566 21.5093 18.3105 21.2314 18.3105 20.9417C18.3105 20.652 18.3567 20.3741 18.4411 20.1167C18.4653 20.0432 18.4925 19.9713 18.5227 19.9013C18.5378 19.8663 18.5536 19.8318 18.5702 19.7978C18.9344 19.0491 19.6446 18.5398 20.459 18.5398H25.2905C25.3431 18.5398 25.386 18.5877 25.386 18.6465V23.2369Z" fill="white"/>
</svg>
