<svg width="12" height="13" viewBox="0 0 12 13" fill="none" xmlns="http://www.w3.org/2000/svg">
<path d="M3.31254 6.49989C3.16854 6.49989 3.02454 6.44476 2.91429 6.33564L0.664287 4.08564C0.444912 3.86626 0.444912 3.50964 0.664287 3.29026L2.91429 1.04026C3.13366 0.820889 3.49029 0.820889 3.70966 1.04026C3.92904 1.25964 3.92904 1.61626 3.70966 1.83564L1.85791 3.68739L3.70966 5.53914C3.92904 5.75851 3.92904 6.11514 3.70966 6.33451C3.60054 6.44476 3.45654 6.49989 3.31254 6.49989V6.49989Z" fill="#5282F0"/>
<path d="M11.1875 4.25H1.34375C1.03325 4.25 0.78125 3.998 0.78125 3.6875C0.78125 3.377 1.03212 3.125 1.34375 3.125H11.1875C11.498 3.125 11.75 3.377 11.75 3.6875C11.75 3.998 11.498 4.25 11.1875 4.25Z" fill="#5282F0"/>
<path d="M8.93754 12.125C8.79354 12.125 8.64954 12.0699 8.53929 11.9607C8.31991 11.7414 8.31991 11.3847 8.53929 11.1654L10.391 9.31361L8.53929 7.46186C8.31991 7.24248 8.31991 6.88586 8.53929 6.66648C8.75866 6.44711 9.11529 6.44711 9.33466 6.66648L11.5847 8.91648C11.804 9.13586 11.804 9.49248 11.5847 9.71186L9.33466 11.9619C9.22554 12.0699 9.08154 12.125 8.93754 12.125V12.125Z" fill="#5282F0"/>
<path d="M10.9062 9.875H1.0625C0.752 9.875 0.5 9.623 0.5 9.3125C0.5 9.002 0.752 8.75 1.0625 8.75H10.9062C11.2167 8.75 11.4688 9.002 11.4688 9.3125C11.4688 9.623 11.2179 9.875 10.9062 9.875Z" fill="#5282F0"/>
</svg>
