<svg width="32" height="33" viewBox="0 0 32 33" fill="none" xmlns="http://www.w3.org/2000/svg">
<path d="M26.4063 17.4419C26.1492 17.4419 25.9407 17.6569 25.9407 17.9221C25.9407 18.2584 25.6754 18.5319 25.3493 18.5319C25.0233 18.5319 24.758 18.2584 24.758 17.9221C24.758 17.6568 24.5495 17.4419 24.2923 17.4419C24.0352 17.4419 23.8267 17.6569 23.8267 17.9221C23.8267 18.788 24.5098 19.4924 25.3493 19.4924C26.1889 19.4924 26.872 18.7879 26.872 17.9221C26.872 17.6568 26.6635 17.4419 26.4063 17.4419Z" fill="#27E3CF"/>
<path d="M30.7778 17.5202L29.467 17.0872C29.2991 17.0317 29.1668 16.8935 29.1131 16.7175C28.8369 15.8117 28.42 14.9614 27.8741 14.19C27.6252 13.8384 27.3486 13.5027 27.0463 13.1831C27.2397 12.3083 27.3448 11.3182 27.3312 10.4628C27.3117 9.2392 27.0746 8.52151 26.6063 8.2686C26.3541 8.13222 25.5866 7.71791 21.4324 9.67896C21.3341 9.72537 21.2422 9.78254 21.1571 9.84802C20.8771 9.77042 20.5908 9.69862 20.3028 9.63417C20.2681 9.62637 20.2324 9.61947 20.1974 9.61187C20.5341 8.85351 20.7306 8.02987 20.7676 7.1796C20.7791 6.91457 20.5801 6.69014 20.3231 6.67835C20.0668 6.6652 19.8485 6.87158 19.8371 7.13661C19.7764 8.53466 19.214 9.85009 18.2536 10.8405C17.6798 11.4323 17.0079 11.8621 16.2919 12.1328C15.0501 11.9531 13.7852 11.9531 12.5434 12.1328C11.8273 11.8621 11.1554 11.4323 10.5816 10.8405C9.557 9.78389 8.99269 8.37901 8.99269 6.88466C8.99269 5.39025 9.557 3.98543 10.5816 2.92879C11.6063 1.87208 12.9686 1.29013 14.4176 1.29013C15.8666 1.29013 17.229 1.87208 18.2536 2.92879C18.6654 3.35341 19.0056 3.83797 19.2649 4.36887C19.3806 4.6058 19.6607 4.70119 19.8904 4.58182C20.1201 4.46258 20.2126 4.17377 20.0969 3.9369C19.7929 3.31435 19.3944 2.74671 18.9123 2.24952C17.7117 1.01144 16.1155 0.32959 14.4177 0.32959C12.7199 0.32959 11.1236 1.01144 9.92306 2.24952C8.7225 3.48766 8.06131 5.13373 8.06131 6.8846C8.06131 8.63547 8.7225 10.2816 9.92306 11.5197C10.2694 11.8768 10.6461 12.1839 11.0446 12.4412C11.0448 12.4412 11.0449 12.4412 11.045 12.4412C10.7554 12.5188 10.4681 12.6059 10.1839 12.7039C9.93994 12.788 9.80831 13.06 9.88988 13.3117C9.97138 13.5632 10.2353 13.699 10.4792 13.6149C13.0189 12.7393 15.8164 12.7393 18.3562 13.6149C18.4052 13.6318 18.4549 13.6398 18.5039 13.6398C18.6987 13.6398 18.8803 13.5127 18.9455 13.3117C19.0271 13.0601 18.8954 12.788 18.6515 12.7039C18.3673 12.6059 18.0799 12.5187 17.7904 12.4412C17.7905 12.4412 17.7906 12.4412 17.7908 12.4412C18.1893 12.1839 18.566 11.8768 18.9123 11.5197C19.2187 11.2037 19.4891 10.8587 19.7239 10.492C19.8523 10.5178 19.9797 10.5447 20.1053 10.5728C20.2726 10.6102 20.4391 10.6505 20.6041 10.6927C20.5989 10.7136 20.5936 10.7344 20.5893 10.7556C20.3621 11.8671 20.3769 12.8501 20.6331 13.6772C20.8633 14.4207 21.2789 15.023 21.8681 15.4676C22.5625 15.9914 23.4009 16.2177 24.1603 16.2177C24.7319 16.2177 25.2588 16.0895 25.6458 15.8634C26.0836 15.6077 26.4503 15.069 26.7406 14.2601C26.8748 14.4216 27.002 14.5871 27.1219 14.7564C27.6079 15.4431 27.979 16.1999 28.2248 17.0057C28.3691 17.479 28.7273 17.8514 29.183 18.0021L30.4937 18.435C30.8377 18.5487 31.0688 18.8751 31.0688 19.2475V21.4889C31.0688 21.8613 30.8377 22.1878 30.4937 22.3014L28.3819 22.999C28.0441 23.1107 27.7581 23.3501 27.5768 23.6733C26.7471 25.152 25.4427 26.3756 23.6995 27.3102C23.4981 27.4183 23.3586 27.6116 23.3166 27.8407L22.6403 31.534C22.6216 31.6358 22.5351 31.7096 22.4347 31.7096H20.2355C20.1351 31.7096 20.0486 31.6358 20.0299 31.534L19.6553 29.4929C19.5816 29.0913 19.2163 28.8245 18.8232 28.8859C17.8759 29.0337 16.8998 29.1085 15.9221 29.1085C15.1947 29.1085 14.4766 29.0667 13.7877 28.9841C13.4067 28.9389 13.0519 29.2067 12.9807 29.5946L12.6247 31.534C12.606 31.6358 12.5196 31.7096 12.4191 31.7096H10.2199C10.1195 31.7096 10.0331 31.6358 10.0141 31.5325L9.36288 28.0442C9.32094 27.8194 9.18406 27.6283 8.98713 27.5198C6.01563 25.884 4.445 23.1509 4.445 19.6163C4.445 17.8304 4.82388 16.2512 5.57106 14.9225C6.26831 13.6825 7.28669 12.6572 8.59787 11.8751C8.8205 11.7422 8.89656 11.4485 8.76781 11.2188C8.63906 10.9892 8.35419 10.9109 8.1315 11.0436C5.58906 12.5603 4.05563 14.9002 3.63344 17.8721V17.872C3.58863 17.8679 3.54375 17.8639 3.49906 17.8591C3.50719 17.5384 3.45094 17.2149 3.32844 16.9009C3.05825 16.2083 2.50325 15.7084 1.91444 15.6273C1.45044 15.5633 1.00888 15.7664 0.702438 16.184C0.258125 16.7894 0.330563 17.2686 0.4695 17.5639C0.704063 18.0623 1.307 18.4149 2.30756 18.6365C2.28006 18.679 2.24981 18.7217 2.21669 18.7645C1.6255 19.5291 0.929 19.6982 0.47675 19.7141C0.212 19.7233 0 19.9425 0 20.2158V20.2181C0 20.4876 0.206187 20.7073 0.46725 20.7197C0.500688 20.7213 0.535625 20.7221 0.572 20.7221C1.14425 20.7221 2.06269 20.5044 2.94506 19.3634C3.08438 19.1833 3.19788 18.9933 3.28513 18.797C3.373 18.8073 3.45744 18.816 3.53831 18.8238C3.53831 18.8236 3.53831 18.8234 3.53838 18.8232C3.5225 19.0835 3.51369 19.3476 3.51369 19.6163C3.51369 21.6161 3.976 23.3992 4.88769 24.9163C5.72831 26.3149 6.93187 27.4601 8.46612 28.3213L9.09925 31.7126C9.20106 32.2674 9.67238 32.6701 10.2199 32.6701H12.4191C12.9667 32.6701 13.438 32.2674 13.5398 31.7126L13.8617 29.9589C14.5302 30.032 15.2223 30.069 15.922 30.069C16.882 30.069 17.8409 30 18.7754 29.8639L19.1147 31.7127C19.2166 32.2675 19.6879 32.6702 20.2354 32.6702H22.4346C22.9821 32.6702 23.4534 32.2675 23.5553 31.7125L24.2139 28.1165C26.0744 27.102 27.4768 25.7692 28.3829 24.1543C28.4482 24.0379 28.5488 23.9525 28.666 23.9138L30.7778 23.2162C31.5088 22.9745 32 22.2804 32 21.4888V19.2474C32 18.4558 31.5088 17.7617 30.7778 17.5202ZM26.3299 11.8124C26.1506 13.3932 25.6698 14.7454 25.1867 15.0276C24.6376 15.3484 23.3698 15.4103 22.4179 14.6923C21.4649 13.9733 21.1477 12.6805 21.5005 10.9536C21.5005 10.9535 21.5005 10.9535 21.5005 10.9535C21.5359 10.7801 21.6554 10.63 21.8201 10.5523C24.1516 9.4517 25.4958 9.09173 25.9952 9.09173C26.0706 9.09173 26.1267 9.09992 26.1641 9.115C26.3141 9.27987 26.5108 10.2171 26.3299 11.8124ZM1.30756 17.1445C1.25938 17.042 1.37313 16.8619 1.44525 16.7635C1.55956 16.6078 1.66488 16.576 1.74444 16.576C1.76125 16.576 1.77694 16.5774 1.79131 16.5794C2.00544 16.6088 2.30544 16.8518 2.46438 17.2592C2.50181 17.3551 2.55044 17.514 2.56181 17.7121C1.91713 17.5744 1.41625 17.3758 1.30756 17.1445Z" fill="#27E3CF"/>
</svg>
