<svg width="23" height="27" viewBox="0 0 23 27" fill="none" xmlns="http://www.w3.org/2000/svg">
<path d="M15.4375 27H3.0625C1.51225 27 0.25 25.7378 0.25 24.1875V2.8125C0.25 1.26225 1.51225 0 3.0625 0H15.4375C16.9877 0 18.25 1.26225 18.25 2.8125V7.3125C18.25 7.623 17.998 7.875 17.6875 7.875C17.377 7.875 17.125 7.623 17.125 7.3125V2.8125C17.125 1.88213 16.3679 1.125 15.4375 1.125H3.0625C2.13212 1.125 1.375 1.88213 1.375 2.8125V24.1875C1.375 25.1179 2.13212 25.875 3.0625 25.875H15.4375C16.3679 25.875 17.125 25.1179 17.125 24.1875V19.6875C17.125 19.377 17.377 19.125 17.6875 19.125C17.998 19.125 18.25 19.377 18.25 19.6875V24.1875C18.25 25.7378 16.9877 27 15.4375 27Z" fill="#E6DD3B"/>
<path d="M11.5 3.375H7C6.06962 3.375 5.3125 2.61788 5.3125 1.6875C5.3125 1.377 5.0605 1.125 4.75 1.125H3.625C3.3145 1.125 3.0625 0.873 3.0625 0.5625C3.0625 0.252 3.3145 0 3.625 0H4.75C5.68037 0 6.4375 0.757125 6.4375 1.6875C6.4375 1.998 6.6895 2.25 7 2.25H11.5C11.8105 2.25 12.0625 1.998 12.0625 1.6875C12.0625 0.757125 12.8196 0 13.75 0H14.875C15.1855 0 15.4375 0.252 15.4375 0.5625C15.4375 0.873 15.1855 1.125 14.875 1.125H13.75C13.4395 1.125 13.1875 1.377 13.1875 1.6875C13.1875 2.61788 12.4304 3.375 11.5 3.375Z" fill="#E6DD3B"/>
<path d="M14.3125 13.4999C14.1685 13.4999 14.0245 13.4448 13.9143 13.3356L11.6643 11.0856C11.4449 10.8663 11.4449 10.5096 11.6643 10.2903L13.9143 8.04026C14.1337 7.82089 14.4903 7.82089 14.7097 8.04026C14.929 8.25964 14.929 8.61626 14.7097 8.83564L12.8579 10.6874L14.7097 12.5391C14.929 12.7585 14.929 13.1151 14.7097 13.3345C14.6005 13.4448 14.4565 13.4999 14.3125 13.4999V13.4999Z" fill="#E6DD3B"/>
<path d="M22.1875 11.25H12.3437C12.0332 11.25 11.7812 10.998 11.7812 10.6875C11.7812 10.377 12.0321 10.125 12.3437 10.125H22.1875C22.498 10.125 22.75 10.377 22.75 10.6875C22.75 10.998 22.498 11.25 22.1875 11.25Z" fill="#E6DD3B"/>
<path d="M19.9375 19.125C19.7935 19.125 19.6495 19.0699 19.5393 18.9607C19.3199 18.7414 19.3199 18.3847 19.5393 18.1654L21.391 16.3136L19.5393 14.4619C19.3199 14.2425 19.3199 13.8859 19.5393 13.6665C19.7587 13.4471 20.1153 13.4471 20.3347 13.6665L22.5847 15.9165C22.804 16.1359 22.804 16.4925 22.5847 16.7119L20.3347 18.9619C20.2255 19.0699 20.0815 19.125 19.9375 19.125V19.125Z" fill="#E6DD3B"/>
<path d="M21.9062 16.875H12.0625C11.752 16.875 11.5 16.623 11.5 16.3125C11.5 16.002 11.752 15.75 12.0625 15.75H21.9062C22.2167 15.75 22.4688 16.002 22.4688 16.3125C22.4688 16.623 22.2179 16.875 21.9062 16.875Z" fill="#E6DD3B"/>
</svg>
